<?xml version="1.0" standalone="no"?>
<!DOCTYPE svg PUBLIC "-//W3C//DTD SVG 20010904//EN"
 "http://www.w3.org/TR/2001/REC-SVG-20010904/DTD/svg10.dtd">
<svg version="1.0" xmlns="http://www.w3.org/2000/svg"
 width="690.000000pt" height="299.000000pt" viewBox="0 0 690.000000 299.000000"
 preserveAspectRatio="xMidYMid meet">

<g transform="translate(0.000000,299.000000) scale(0.100000,-0.100000)"
fill="#000000" stroke="none">
<path d="M6447 2914 c-12 -13 4 -24 34 -24 24 0 29 -3 25 -17 -8 -25 -56 -244
-56 -255 0 -4 8 -8 19 -8 15 0 21 15 35 83 9 45 25 115 35 155 l18 72 -52 0
c-28 0 -55 -3 -58 -6z"/>
<path d="M3424 2894 c-75 -37 -86 -154 -13 -154 26 0 24 -9 -13 -47 -21 -21
-27 -33 -17 -33 15 0 102 85 132 130 25 36 22 85 -5 104 -28 20 -45 20 -84 0z
m70 -20 c39 -38 -6 -113 -67 -114 -61 0 -58 86 3 117 33 17 45 16 64 -3z"/>
<path d="M6170 2894 c0 -12 7 -15 25 -12 14 3 27 2 29 -1 3 -4 -1 -33 -9 -66
-7 -33 -20 -91 -28 -130 -11 -51 -13 -72 -4 -77 19 -12 24 -1 46 99 12 54 28
122 36 151 l14 52 -55 0 c-43 0 -54 -3 -54 -16z"/>
<path d="M4560 2884 c0 -10 7 -14 23 -12 15 2 21 -1 18 -12 -1 -8 -14 -58 -27
-110 -27 -109 -29 -123 -12 -118 13 5 79 248 71 261 -2 4 -20 7 -39 7 -24 0
-34 -4 -34 -16z"/>
<path d="M4758 2871 c-25 -22 -38 -45 -51 -94 -22 -86 -22 -112 5 -137 33 -31
90 -27 131 9 56 50 87 199 49 234 -31 28 -96 22 -134 -12z m103 -1 c24 -13 25
-56 3 -131 -21 -70 -38 -89 -84 -89 -64 0 -73 28 -43 133 13 46 23 63 47 78
35 22 49 23 77 9z"/>
<path d="M2050 2825 c-164 -13 -366 -45 -489 -76 -41 -10 -81 -19 -89 -19 -8
0 -28 -7 -45 -15 -18 -8 -50 -19 -72 -24 -47 -11 -94 -28 -151 -53 -22 -10
-46 -18 -52 -18 -7 0 -20 -4 -30 -9 -17 -9 -50 -24 -124 -56 -21 -9 -38 -20
-38 -25 0 -15 26 -12 40 5 7 8 25 15 41 15 15 0 31 5 34 10 9 14 48 13 63 -2
22 -22 13 -28 -30 -23 -24 3 -37 2 -30 -1 6 -3 12 -12 12 -20 0 -8 10 -14 26
-14 14 0 23 -4 19 -10 -3 -5 -15 -10 -26 -10 -10 0 -19 -3 -19 -8 0 -4 -19
-16 -42 -26 -24 -10 -50 -24 -59 -32 -8 -8 -28 -15 -42 -16 -15 -1 -27 -6 -27
-10 0 -3 -10 -10 -22 -14 -12 -3 -28 -13 -36 -21 -10 -10 -18 -11 -27 -3 -11
9 -12 7 -9 -7 4 -14 -4 -24 -32 -39 -27 -14 -38 -16 -41 -6 -3 6 -9 12 -15 12
-7 0 -7 -5 1 -13 14 -18 2 -30 -16 -15 -7 6 -17 8 -20 4 -4 -4 -1 -12 7 -17
12 -8 10 -10 -8 -6 -18 4 -22 2 -18 -9 3 -8 -6 -20 -24 -29 -17 -9 -30 -20
-30 -25 0 -6 -5 -10 -11 -10 -6 0 -8 9 -4 20 5 15 2 20 -14 20 -11 0 -23 -4
-26 -10 -3 -5 1 -10 9 -10 9 0 16 -9 16 -20 0 -17 -3 -18 -26 -9 -29 11 -40 7
-29 -11 4 -6 14 -9 24 -5 9 3 -2 -10 -24 -29 -25 -21 -44 -31 -49 -25 -17 16
-28 10 -21 -11 4 -11 2 -20 -4 -20 -6 0 -11 5 -11 12 0 6 -3 8 -6 5 -4 -4 -2
-13 4 -20 9 -11 6 -19 -12 -36 -13 -12 -25 -18 -27 -13 -6 14 -59 24 -59 11 0
-6 -7 -9 -14 -6 -10 4 -13 1 -9 -9 6 -16 23 -19 23 -4 0 15 19 12 36 -5 14
-13 12 -18 -17 -45 -18 -16 -35 -27 -38 -24 -3 3 8 16 24 29 17 13 27 27 22
31 -4 4 -17 -2 -30 -13 -12 -11 -28 -18 -34 -16 -7 3 -13 0 -13 -6 0 -6 5 -11
10 -11 6 0 10 -7 10 -15 0 -18 -17 -20 -22 -3 -3 8 -14 2 -31 -17 -23 -27 -24
-31 -10 -42 8 -6 13 -15 12 -20 -13 -29 -123 -214 -130 -219 -5 -3 -9 -17 -9
-32 0 -22 -2 -24 -11 -12 -9 13 -10 12 -5 -3 3 -10 -3 -35 -13 -55 -27 -53
-57 -171 -75 -295 -19 -129 -19 -117 -2 -117 10 0 14 15 14 59 0 164 84 400
211 590 31 46 63 96 71 112 8 16 20 29 25 29 6 0 48 39 95 86 134 136 271 235
490 356 337 187 643 280 1075 328 166 18 490 9 715 -20 41 -5 93 -12 115 -15
22 -2 7 4 -34 15 -41 10 -100 22 -130 26 -78 9 -100 24 -33 22 71 -2 76 9 8
17 -51 7 -55 9 -39 22 14 11 15 16 5 20 -9 3 -10 9 -2 18 13 16 -29 23 -215
35 -163 11 -153 11 -355 -5z m515 -85 c3 -5 1 -10 -4 -10 -6 0 -11 5 -11 10 0
6 2 10 4 10 3 0 8 -4 11 -10z m-1228 -86 c-3 -3 -12 -4 -19 -1 -8 3 -5 6 6 6
11 1 17 -2 13 -5z m50 0 c-3 -3 -12 -4 -19 -1 -8 3 -5 6 6 6 11 1 17 -2 13 -5z
m-111 -29 c-21 -16 -32 -13 -21 4 3 6 14 11 23 11 15 -1 15 -2 -2 -15z m84 1
c0 -2 -7 -6 -15 -10 -8 -3 -15 -1 -15 4 0 6 7 10 15 10 8 0 15 -2 15 -4z m87
-12 c-3 -3 -12 -4 -19 -1 -8 3 -5 6 6 6 11 1 17 -2 13 -5z m-127 -9 c0 -10
-45 -23 -55 -17 -5 3 1 9 15 13 33 9 40 10 40 4z m-136 -11 c27 -10 18 -24
-15 -24 -27 0 -30 2 -19 15 14 17 13 17 34 9z m215 2 c-2 -2 -26 -10 -53 -19
-53 -18 -55 -10 -3 10 31 11 65 17 56 9z m-162 -12 c-3 -3 -12 -4 -19 -1 -8 3
-5 6 6 6 11 1 17 -2 13 -5z m-12 -54 c3 -5 -1 -10 -9 -10 -9 0 -16 5 -16 10 0
6 4 10 9 10 6 0 13 -4 16 -10z m-55 -20 c0 -13 -11 -13 -30 0 -12 8 -11 10 8
10 12 0 22 -4 22 -10z m-860 -604 c0 -16 -18 -31 -27 -22 -8 8 5 36 17 36 5 0
10 -6 10 -14z"/>
<path d="M2668 2793 c7 -3 16 -2 19 1 4 3 -2 6 -13 5 -11 0 -14 -3 -6 -6z"/>
<path d="M2660 2759 c0 -5 5 -7 10 -4 6 3 10 8 10 11 0 2 -4 4 -10 4 -5 0 -10
-5 -10 -11z"/>
<path d="M2045 2600 c-4 -6 -3 -14 0 -20 9 -15 35 -12 35 4 0 17 -27 29 -35
16z"/>
<path d="M2235 2590 c3 -5 8 -10 11 -10 2 0 4 5 4 10 0 6 -5 10 -11 10 -5 0
-7 -4 -4 -10z"/>
<path d="M2410 2590 c0 -5 5 -10 10 -10 6 0 10 5 10 10 0 6 -4 10 -10 10 -5 0
-10 -4 -10 -10z"/>
<path d="M2595 2581 c-3 -5 -1 -12 5 -16 5 -3 10 1 10 9 0 18 -6 21 -15 7z"/>
<path d="M2770 2550 c0 -5 5 -10 10 -10 6 0 10 5 10 10 0 6 -4 10 -10 10 -5 0
-10 -4 -10 -10z"/>
<path d="M1029 2528 c-6 -25 -6 -38 1 -38 12 0 20 29 10 35 -6 4 -10 5 -11 3z"/>
<path d="M2940 2515 c0 -8 9 -15 20 -15 11 0 20 7 20 15 0 8 -9 15 -20 15 -11
0 -20 -7 -20 -15z"/>
<path d="M960 2500 c0 -5 5 -10 10 -10 6 0 10 5 10 10 0 6 -4 10 -10 10 -5 0
-10 -4 -10 -10z"/>
<path d="M868 2489 c-10 -5 -18 -14 -18 -19 0 -17 25 -11 38 10 13 22 7 25
-20 9z"/>
<path d="M1050 2490 c0 -5 9 -10 20 -10 11 0 20 5 20 10 0 6 -9 10 -20 10 -11
0 -20 -4 -20 -10z"/>
<path d="M2103 2494 c-7 -3 -10 -11 -7 -19 3 -7 -6 -31 -20 -53 -14 -22 -22
-43 -19 -46 13 -12 30 -5 41 17 6 12 23 41 37 65 l26 42 -23 -1 c-13 0 -28 -3
-35 -5z"/>
<path d="M2058 2483 c7 -3 16 -2 19 1 4 3 -2 6 -13 5 -11 0 -14 -3 -6 -6z"/>
<path d="M2308 2453 c-9 -2 -15 -10 -12 -18 3 -7 -4 -31 -15 -54 -25 -48 -25
-51 -6 -51 12 0 75 105 75 125 0 6 -16 5 -42 -2z"/>
<path d="M2255 2440 c-3 -5 -1 -10 4 -10 6 0 11 5 11 10 0 6 -2 10 -4 10 -3 0
-8 -4 -11 -10z"/>
<path d="M960 2424 c0 -14 3 -14 15 -4 8 7 15 14 15 16 0 2 -7 4 -15 4 -8 0
-15 -7 -15 -16z"/>
<path d="M2807 2433 c-11 -3 -16 -10 -13 -19 3 -9 -3 -32 -14 -53 -18 -36 -18
-51 2 -51 11 0 68 117 60 124 -6 6 -7 6 -35 -1z"/>
<path d="M2878 2327 c-20 -40 -111 -223 -203 -407 -91 -184 -168 -336 -170
-338 -2 -2 -56 67 -120 152 -64 86 -122 156 -128 156 -7 0 -19 -5 -27 -10 -12
-8 -11 -12 6 -32 11 -13 55 -72 98 -132 42 -60 89 -124 103 -143 26 -34 26
-34 5 -40 -12 -3 -24 -13 -27 -23 -6 -18 -1 -19 -130 10 -401 89 -411 91 -770
179 -272 66 -281 68 -299 50 -11 -10 -17 -21 -14 -25 4 -3 71 -21 150 -40 79
-19 159 -39 178 -44 87 -24 280 -69 775 -181 118 -26 125 -34 91 -95 -15 -26
-23 -51 -19 -55 5 -4 26 -10 48 -13 39 -6 40 -5 61 37 14 30 27 43 45 45 13 2
29 10 35 18 9 11 29 -10 105 -107 52 -67 114 -147 139 -178 25 -31 77 -96 115
-146 81 -105 217 -278 225 -285 3 -3 38 -48 78 -100 75 -99 149 -186 136 -160
-4 8 -24 35 -45 60 -20 25 -64 81 -97 125 -33 44 -97 127 -141 185 -206 266
-441 580 -441 588 0 5 23 3 52 -4 68 -18 85 -18 92 2 11 29 6 33 -71 49 -114
24 -115 25 -108 42 3 9 -2 27 -10 40 -15 22 -14 27 9 76 66 140 196 418 219
467 14 30 43 94 65 142 l40 87 54 -15 c64 -17 58 -16 58 -4 0 6 -9 10 -19 10
-11 0 -32 5 -48 11 -28 12 -27 12 35 31 54 16 63 22 60 40 -2 12 -9 23 -16 26
-7 2 -10 -2 -7 -11 8 -19 -12 -34 -57 -42 -43 -8 -46 -3 -19 41 l19 32 -37 0
c-35 1 -37 -1 -73 -71z m-392 -845 c-4 -3 -14 2 -24 12 -16 18 -16 18 6 6 13
-6 21 -14 18 -18z m-56 -27 c7 -9 8 -15 2 -15 -5 0 -12 7 -16 15 -3 8 -4 15
-2 15 2 0 9 -7 16 -15z m124 -35 c-10 -4 -21 -6 -24 -3 -8 7 24 22 34 16 5 -4
1 -10 -10 -13z"/>
<path d="M830 2380 c0 -5 7 -10 15 -10 8 0 15 5 15 10 0 6 -7 10 -15 10 -8 0
-15 -4 -15 -10z"/>
<path d="M1180 2360 c0 -14 40 -32 57 -25 14 5 14 7 -3 20 -22 16 -54 20 -54
5z"/>
<path d="M776 2325 c-18 -13 -18 -14 3 -12 11 1 21 7 21 14 0 16 0 16 -24 -2z"/>
<path d="M698 2313 c7 -3 16 -2 19 1 4 3 -2 6 -13 5 -11 0 -14 -3 -6 -6z"/>
<path d="M665 2290 c3 -5 8 -10 11 -10 2 0 4 5 4 10 0 6 -5 10 -11 10 -5 0 -7
-4 -4 -10z"/>
<path d="M1403 2280 c-15 -6 -21 -15 -17 -25 4 -10 -6 -31 -25 -55 -33 -42
-39 -60 -17 -60 11 0 106 129 106 145 0 7 -22 5 -47 -5z"/>
<path d="M630 2260 c-8 -5 -11 -12 -7 -16 4 -4 13 -2 19 4 6 6 10 14 7 16 -2
3 -11 1 -19 -4z"/>
<path d="M1338 2263 c6 -2 18 -2 25 0 6 3 1 5 -13 5 -14 0 -19 -2 -12 -5z"/>
<path d="M1550 2243 c-34 -23 -57 -53 -69 -85 -8 -23 -6 -30 12 -43 12 -8 39
-15 61 -15 33 0 45 7 78 40 47 50 51 91 13 108 -36 17 -66 15 -95 -5z m84 -18
c7 -20 -23 -73 -56 -98 -21 -15 -29 -17 -47 -8 -27 15 -27 18 9 74 24 38 35
47 59 47 16 0 31 -6 35 -15z"/>
<path d="M440 2190 c0 -5 5 -10 11 -10 5 0 7 5 4 10 -3 6 -8 10 -11 10 -2 0
-4 -4 -4 -10z"/>
<path d="M55 2150 c-3 -6 1 -7 9 -4 18 7 21 14 7 14 -6 0 -13 -4 -16 -10z"/>
<path d="M505 2149 c-4 -6 -5 -13 -2 -16 7 -7 27 6 27 18 0 12 -17 12 -25 -2z"/>
<path d="M426 2073 c-11 -11 -6 -23 9 -23 8 0 15 4 15 9 0 13 -16 22 -24 14z"/>
<path d="M635 1990 c-3 -5 1 -10 10 -10 9 0 13 5 10 10 -3 6 -8 10 -10 10 -2
0 -7 -4 -10 -10z"/>
<path d="M825 1897 c-28 -17 -44 -39 -45 -60 0 -19 42 -40 78 -38 29 1 28 -13
-3 -33 -30 -20 -61 -21 -72 -2 -10 18 -50 30 -57 17 -10 -16 21 -39 63 -46 66
-11 131 26 166 94 17 35 17 35 -9 58 -30 25 -87 30 -121 10z m83 -16 c39 -24
-27 -83 -68 -61 -26 14 -25 35 2 54 25 18 46 20 66 7z"/>
<path d="M510 1880 c-11 -7 -9 -11 13 -19 41 -16 77 -14 77 4 0 9 -9 15 -24
15 -13 0 -30 2 -38 5 -7 3 -20 1 -28 -5z"/>
<path d="M3146 1839 c-11 -10 -17 -21 -14 -24 2 -3 15 6 28 20 27 29 14 33
-14 4z"/>
<path d="M3090 1775 c-14 -16 -10 -18 14 -9 9 3 16 10 16 15 0 14 -16 11 -30
-6z"/>
<path d="M192 1759 c-7 -11 -11 -23 -9 -25 7 -7 29 24 25 36 -2 6 -9 1 -16
-11z"/>
<path d="M3159 1761 c50 -39 15 -123 -54 -129 -31 -3 -43 1 -58 20 -10 13 -17
17 -15 9 3 -8 16 -23 29 -34 21 -15 33 -17 60 -10 37 10 79 61 79 97 0 29 -27
66 -48 66 -14 0 -12 -4 7 -19z"/>
<path d="M4270 1771 c0 -5 10 -11 23 -13 26 -4 26 -2 -11 -146 -16 -62 -26
-115 -21 -117 13 -8 24 22 53 140 15 61 30 118 32 128 5 14 -1 17 -35 17 -23
0 -41 -4 -41 -9z"/>
<path d="M4460 1756 c0 -13 12 -16 65 -16 39 0 65 -4 65 -11 0 -5 -40 -63 -90
-127 -49 -64 -87 -118 -85 -120 12 -13 42 18 124 129 50 68 91 129 91 136 0 9
-16 13 -54 13 -29 0 -68 3 -85 6 -24 5 -31 3 -31 -10z"/>
<path d="M421 1746 c10 -9 79 -14 74 -5 -4 5 -22 9 -42 9 -20 0 -34 -2 -32 -4z"/>
<path d="M5900 1646 c0 -9 12 -16 28 -18 15 -2 26 -8 25 -14 -1 -6 -12 -58
-24 -115 -35 -165 -34 -161 -13 -157 15 2 23 20 36 83 9 44 23 111 31 150 9
38 13 73 11 77 -3 4 -25 8 -50 8 -31 0 -44 -4 -44 -14z"/>
<path d="M6201 1636 c-60 -21 -86 -71 -58 -117 10 -18 9 -23 -2 -27 -41 -14
-68 -71 -57 -117 14 -53 101 -83 164 -55 70 32 94 100 51 146 l-20 22 25 25
c14 15 26 37 26 50 0 54 -69 93 -129 73z m77 -38 c17 -17 15 -48 -5 -70 -32
-36 -103 -14 -103 32 0 39 79 67 108 38z m-15 -146 c43 -38 0 -112 -67 -112
-51 0 -78 25 -74 68 2 31 9 40 37 54 38 19 75 15 104 -10z"/>
<path d="M340 1610 c0 -5 6 -10 14 -10 7 0 29 -3 47 -6 23 -5 31 -3 24 3 -15
15 -85 26 -85 13z"/>
<path d="M280 1460 c0 -6 26 -10 57 -10 68 0 67 5 -4 13 -31 4 -53 2 -53 -3z"/>
<path d="M268 1312 c-16 -2 -28 -8 -28 -14 0 -6 12 -8 31 -4 17 3 45 6 61 6
16 0 27 4 23 9 -5 9 -31 10 -87 3z"/>
<path d="M670 1270 c-33 -13 -56 -48 -41 -63 18 -18 13 -27 -15 -27 -37 0 -87
-55 -74 -81 36 -65 169 -63 213 5 14 21 14 26 1 45 -14 19 -14 21 4 21 21 0
62 40 62 61 0 33 -99 59 -150 39z m88 -32 c9 -9 8 -16 -5 -30 -19 -21 -56 -24
-72 -4 -25 31 48 63 77 34z m-67 -78 c26 -14 24 -32 -5 -59 -19 -18 -32 -22
-51 -17 -36 9 -42 33 -15 62 26 26 41 29 71 14z"/>
<path d="M258 1163 c-20 -3 -28 -10 -28 -25 0 -18 4 -20 31 -14 17 3 44 6 60
6 22 0 29 5 29 20 0 21 -21 24 -92 13z"/>
<path d="M32 1030 c0 -19 2 -27 5 -17 2 9 2 25 0 35 -3 9 -5 1 -5 -18z"/>
<path d="M271 989 c-18 -6 -31 -13 -28 -16 9 -8 127 8 127 18 0 11 -55 10 -99
-2z"/>
<path d="M355 835 c-27 -8 -53 -14 -57 -15 -5 0 -8 -6 -8 -13 0 -11 11 -11 60
2 34 9 60 21 60 28 0 7 -1 13 -2 12 -2 0 -25 -7 -53 -14z"/>
<path d="M61 814 c0 -11 3 -14 6 -6 3 7 2 16 -1 19 -3 4 -6 -2 -5 -13z"/>
<path d="M2680 771 c0 -5 5 -13 10 -16 6 -3 10 -2 10 4 0 5 -4 13 -10 16 -5 3
-10 2 -10 -4z"/>
<path d="M2792 754 c-12 -8 -22 -19 -22 -25 0 -5 9 0 20 11 23 23 33 24 61 10
38 -21 9 -90 -39 -90 -20 0 -23 -3 -14 -12 25 -25 82 29 82 77 0 19 -28 45
-48 45 -10 0 -28 -7 -40 -16z"/>
<path d="M81 744 c0 -11 3 -14 6 -6 3 7 2 16 -1 19 -3 4 -6 -2 -5 -13z"/>
<path d="M100 705 c0 -5 5 -17 10 -25 5 -8 10 -10 10 -5 0 6 -5 17 -10 25 -5
8 -10 11 -10 5z"/>
<path d="M413 667 c-75 -31 -70 -52 6 -24 53 20 76 38 54 44 -4 1 -32 -8 -60
-20z"/>
<path d="M1012 678 c-20 -20 -14 -37 16 -44 74 -17 102 -25 102 -32 0 -4 -19
-16 -42 -27 -54 -26 -168 -132 -168 -156 0 -14 7 -19 28 -19 20 1 35 12 59 44
18 25 66 66 110 95 43 27 89 59 103 70 l25 19 -45 12 c-43 11 -110 31 -155 44
-12 3 -26 1 -33 -6z"/>
<path d="M2844 596 c5 -21 1 -37 -19 -64 l-27 -37 31 33 c31 33 41 75 20 88
-9 5 -10 -1 -5 -20z"/>
<path d="M3974 580 c-31 -12 -69 -69 -56 -82 7 -7 15 -1 26 20 34 66 126 54
126 -17 0 -33 -28 -61 -132 -130 -43 -29 -78 -58 -78 -65 0 -16 170 -50 184
-36 12 12 -22 25 -86 34 -27 4 -48 10 -48 14 1 4 30 25 66 47 77 47 124 96
124 130 0 71 -60 112 -126 85z"/>
<path d="M4182 436 c-56 -58 -102 -109 -102 -115 0 -5 21 -13 48 -16 104 -14
105 -14 98 -46 -7 -37 21 -41 30 -4 4 16 13 25 25 25 23 0 24 9 4 24 -14 10
-14 18 1 81 9 39 20 80 25 93 15 37 11 62 -9 62 -11 0 -64 -47 -120 -104z m92
12 c-7 -24 -18 -64 -24 -89 l-12 -46 -51 10 c-29 6 -54 11 -56 13 -6 6 133
152 145 153 8 1 8 -11 -2 -41z"/>
<path d="M522 500 c-34 -16 -62 -34 -62 -40 0 -5 3 -10 6 -10 10 0 108 50 118
61 22 21 -4 16 -62 -11z"/>
<path d="M2727 509 c7 -7 15 -10 18 -7 3 3 -2 9 -12 12 -14 6 -15 5 -6 -5z"/>
<path d="M3387 376 c10 -13 19 -23 21 -21 5 5 -22 45 -31 45 -4 0 0 -11 10
-24z"/>
<path d="M329 363 c23 -35 41 -50 41 -35 0 4 -14 21 -32 38 l-31 29 22 -32z"/>
<path d="M638 348 c-27 -16 -48 -33 -48 -37 0 -4 9 -16 19 -25 18 -16 21 -16
72 15 30 18 56 34 58 36 7 5 -31 43 -43 42 -6 0 -32 -14 -58 -31z"/>
<path d="M5635 316 c-52 -23 -87 -79 -57 -91 9 -3 18 -2 20 4 2 5 12 21 23 35
43 54 138 23 139 -45 0 -37 -32 -68 -143 -134 -53 -31 -97 -64 -97 -71 0 -11
16 -14 68 -12 41 1 52 3 30 5 -21 2 -38 7 -38 11 0 4 19 18 43 31 165 93 202
144 162 220 -15 29 -69 61 -102 61 -10 -1 -31 -7 -48 -14z"/>
<path d="M440 247 c35 -37 68 -67 73 -67 8 0 -56 65 -109 110 -16 13 0 -6 36
-43z"/>
<path d="M5900 267 c-60 -150 -59 -148 -43 -154 9 -3 24 -1 34 5 28 18 81 14
109 -7 20 -16 24 -28 25 -65 0 -41 2 -46 23 -46 19 0 22 5 22 36 0 20 -9 51
-20 69 -23 38 -88 68 -125 59 -30 -7 -30 -6 -9 46 10 26 22 39 30 36 7 -3 40
-8 73 -12 52 -6 61 -4 61 9 0 11 -14 18 -47 22 -27 3 -65 10 -86 15 -34 7 -39
6 -47 -13z"/>
<path d="M825 189 c-22 -17 -47 -34 -55 -39 -10 -6 -12 -12 -5 -19 13 -13 114
56 115 77 0 18 -11 15 -55 -19z"/>
<path d="M1865 182 c-42 -27 -60 -50 -84 -105 -29 -66 -27 -77 10 -77 22 0 40
9 59 30 35 37 44 37 80 1 28 -27 80 -40 80 -19 0 42 -70 84 -121 73 -37 -8
-37 4 0 44 37 39 64 39 91 1 27 -38 70 -42 70 -7 0 62 -120 100 -185 59z"/>
<path d="M2978 123 c-8 -15 -24 -45 -36 -66 -12 -21 -22 -39 -22 -41 0 -11 51
-14 81 -6 22 7 35 7 37 0 2 -5 10 -10 18 -10 12 0 12 4 4 20 -8 15 -17 18 -43
13 -17 -3 -40 -10 -49 -15 -14 -7 -18 -4 -18 12 0 11 4 20 8 20 4 0 14 16 21
35 14 40 42 52 85 36 15 -6 35 -11 44 -10 19 1 -37 23 -85 33 -27 6 -33 4 -45
-21z"/>
<path d="M570 125 c0 -2 10 -10 23 -16 20 -11 21 -11 8 4 -13 16 -31 23 -31
12z"/>
<path d="M3012 98 c-7 -7 -12 -18 -12 -25 0 -7 -5 -13 -11 -13 -5 0 -7 -5 -3
-11 3 -6 14 2 25 20 22 36 23 36 79 16 57 -20 82 -20 78 2 -2 10 -12 19 -23
20 -19 3 -19 3 -1 -5 38 -16 -1 -21 -49 -7 -58 18 -68 18 -83 3z"/>
<path d="M634 75 c8 -8 18 -15 22 -15 3 0 1 7 -6 15 -7 8 -17 15 -22 15 -5 0
-3 -7 6 -15z"/>
<path d="M1018 41 c-36 -34 -40 -41 -22 -41 25 0 91 65 75 74 -6 4 -30 -11
-53 -33z"/>
<path d="M60 35 c13 -14 25 -25 27 -25 9 0 -33 49 -41 50 -5 0 1 -11 14 -25z"/>
<path d="M670 51 c0 -5 7 -12 16 -15 14 -5 15 -4 4 9 -14 17 -20 19 -20 6z"/>
<path d="M5812 51 c-17 -11 -2 -51 19 -51 13 0 19 7 19 24 0 25 -19 39 -38 27z"/>
<path d="M722 14 c10 -10 20 -16 22 -13 3 3 -5 11 -17 18 -21 13 -21 12 -5 -5z"/>
<path d="M3085 10 c3 -5 11 -10 16 -10 6 0 7 5 4 10 -3 6 -11 10 -16 10 -6 0
-7 -4 -4 -10z"/>
</g>
</svg>
